<?xml version="1.0"?>
<svg width="108" height="60" xmlns="http://www.w3.org/2000/svg" xmlns:svg="http://www.w3.org/2000/svg">
 <defs>
  <clipPath id="clip0_6_18331">
   <rect fill="white" height="60" id="svg_1" width="108"/>
  </clipPath>
 </defs>
 <g class="layer">
  <title>Layer 1</title>
  <g clip-path="url(#clip0_6_18331)" id="svg_2">
   <path d="m45,12.6c0,7.1 -14.52,23.4 -17.01,23.4c-0.56,0 -0.99,-0.44 -0.99,-0.99c0,-3.59 10.8,-14.59 10.8,-21.63c0,-8.05 -9,-10.14 -9,-12.29c0,-0.46 0.46,-1.08 1.17,-1.08c2.13,-0.01 15.03,5.29 15.03,12.59z" fill="#ffffff" id="svg_3" transform="matrix(1 0 0 1 0 0)"/>
   <path d="m59.4,12.6c0,7.1 -14.52,23.4 -17.01,23.4c-0.55,0 -0.99,-0.44 -0.99,-0.99c0,-3.59 10.8,-14.59 10.8,-21.63c0,-8.05 -9,-10.14 -9,-12.29c0,-0.46 0.46,-1.08 1.17,-1.08c2.13,-0.01 15.03,5.29 15.03,12.59z" fill="#ff0000" id="svg_4" transform="matrix(1 0 0 1 0 0)"/>
   <path d="m63,23.4c0,-7.1 14.53,-23.4 17.02,-23.4c0.55,0 0.98,0.44 0.98,0.99c0,3.59 -10.79,14.59 -10.79,21.63c0,8.05 9,10.14 9,12.29c0,0.46 -0.46,1.08 -1.17,1.08c-2.13,0 -15.04,-5.29 -15.04,-12.59z" fill="#ff0000" id="svg_5" transform="matrix(1 0 0 1 0 0)"/>
   <path d="m7.61,49.4l-3,0l0,10.42l-1.63,0l0,-10.42l-2.98,0l0,-1.24l7.61,0l0,1.24z" fill="#ffffff" id="svg_6"/>
   <path d="m16.79,55.6c0,1.39 -0.36,2.47 -1.08,3.24c-0.71,0.76 -1.67,1.15 -2.87,1.15c-1.19,0 -2.14,-0.39 -2.83,-1.15c-0.7,-0.77 -1.06,-1.85 -1.06,-3.24l0,-3.2c0,-1.37 0.36,-2.45 1.06,-3.24c0.7,-0.77 1.64,-1.17 2.82,-1.17c1.2,0 2.15,0.39 2.87,1.17c0.72,0.79 1.08,1.86 1.08,3.24l0,3.2l0.01,0zm-1.62,-3.23c0,-1.01 -0.2,-1.78 -0.61,-2.31c-0.41,-0.52 -0.98,-0.79 -1.72,-0.79c-0.73,0 -1.29,0.26 -1.68,0.79c-0.39,0.53 -0.59,1.3 -0.59,2.31l0,3.23c0,1.03 0.2,1.8 0.59,2.33c0.39,0.53 0.95,0.79 1.68,0.79c0.74,0 1.32,-0.26 1.72,-0.79c0.41,-0.52 0.61,-1.3 0.61,-2.33l0,-3.23z" fill="#ffffff" id="svg_7"/>
   <path d="m20.74,54.6l-1.12,0l0,5.22l-1.63,0l0,-11.66l1.63,0l0,5.13l0.97,0l3.08,-5.13l1.94,0l-3.67,5.54l3.96,6.13l-1.99,0l-3.17,-5.23z" fill="#ffffff" id="svg_8"/>
   <path d="m31,53.83l0.05,0l2.38,-5.67l1.81,0l-3.43,7.47l0,4.19l-1.62,0l0,-4.3l-3.38,-7.36l1.82,0l2.37,5.67z" fill="#ffffff" id="svg_9"/>
   <path d="m44,55.6c0,1.39 -0.36,2.47 -1.07,3.24c-0.71,0.76 -1.67,1.15 -2.88,1.15c-1.19,0 -2.13,-0.39 -2.83,-1.15c-0.7,-0.77 -1.05,-1.85 -1.05,-3.24l0,-3.2c0,-1.37 0.35,-2.45 1.05,-3.24c0.71,-0.77 1.64,-1.17 2.82,-1.17c1.2,0 2.16,0.39 2.87,1.17c0.72,0.79 1.08,1.86 1.08,3.24l0,3.2l0.01,0zm-1.61,-3.23c0,-1.01 -0.21,-1.78 -0.61,-2.31c-0.41,-0.52 -0.98,-0.79 -1.72,-0.79c-0.74,0 -1.29,0.26 -1.69,0.79c-0.39,0.53 -0.58,1.3 -0.58,2.31l0,3.23c0,1.03 0.19,1.8 0.58,2.33c0.4,0.53 0.95,0.79 1.68,0.79c0.75,0 1.33,-0.26 1.73,-0.79c0.4,-0.52 0.61,-1.3 0.61,-2.33l0,-3.23z" fill="#ffffff" id="svg_10"/>
   <path d="m53.52,49.98l-2.63,0l0,9.84l-2.27,0l0,-9.84l-2.61,0l0,-1.82l7.51,0l0,1.82z" fill="#ff0000" id="svg_11" transform="matrix(1 0 0 1 0 0)"/>
   <path d="m61.59,54.71l-3.91,0l0,3.3l4.6,0l0,1.82l-6.89,0l0,-11.67l6.87,0l0,1.82l-4.59,0l0,2.91l3.92,0l0,1.82l0,0z" fill="#ff0000" id="svg_12"/>
   <path d="m71.7,56.07l0.02,0.05c0,1.28 -0.3,2.25 -0.91,2.9c-0.62,0.65 -1.53,0.98 -2.74,0.98c-1.21,0 -2.17,-0.37 -2.89,-1.11c-0.72,-0.74 -1.08,-1.78 -1.08,-3.14l0,-3.49c0,-1.35 0.34,-2.4 1.04,-3.15c0.7,-0.74 1.63,-1.11 2.8,-1.11c1.24,0 2.18,0.33 2.81,0.99c0.64,0.67 0.96,1.65 0.98,2.95l-0.02,0.05l-2.19,0c0.03,-0.77 -0.07,-1.32 -0.31,-1.66c-0.24,-0.34 -0.67,-0.51 -1.26,-0.51c-0.52,0 -0.9,0.2 -1.18,0.6c-0.27,0.4 -0.41,1.01 -0.41,1.82l0,3.51c0,0.82 0.15,1.43 0.44,1.83c0.29,0.4 0.72,0.6 1.28,0.6c0.55,0 0.93,-0.16 1.15,-0.48c0.22,-0.32 0.31,-0.86 0.28,-1.63l2.19,0z" fill="#ff0000" id="svg_13"/>
   <path d="m81.07,59.82l-2.27,0l0,-4.83l-3.62,0l0,4.83l-2.29,0l0,-11.66l2.29,0l0,5.02l3.62,0l0,-5.02l2.27,0l0,11.66z" fill="#ff0000" id="svg_14"/>
   <path d="m85.07,58l4.26,0l0,1.82l-6.55,0l0,-11.66l2.29,0l0,9.84z" fill="#ff0000" id="svg_15"/>
   <path d="m96.67,57.33l-3.08,0l-0.63,2.49l-2.3,0l3.29,-11.66l2.37,0l3.28,11.66l-2.3,0l-0.63,-2.49zm-2.61,-1.82l2.14,0l-1.05,-4.12l-0.05,0l-1.04,4.12z" fill="#ff0000" id="svg_16"/>
   <path d="m100.41,59.82l0,-11.66l3.43,0c1.2,0 2.14,0.27 2.82,0.81c0.68,0.53 1.01,1.32 1.01,2.38c0,0.56 -0.11,1.05 -0.36,1.48c-0.25,0.43 -0.62,0.75 -1.11,0.96c0.61,0.14 1.07,0.46 1.36,0.94c0.3,0.48 0.44,1.04 0.44,1.69c0,1.12 -0.32,1.96 -0.96,2.54c-0.64,0.58 -1.55,0.87 -2.74,0.87l-3.89,0l0,-0.01zm2.28,-6.73l1.26,0c0.47,-0.01 0.82,-0.15 1.07,-0.41c0.25,-0.26 0.38,-0.63 0.38,-1.12c0,-0.54 -0.13,-0.94 -0.39,-1.2c-0.26,-0.25 -0.64,-0.38 -1.17,-0.38l-1.15,0l0,3.11l0,0zm0,1.59l0,3.32l1.61,0c0.48,0 0.84,-0.13 1.08,-0.4c0.24,-0.27 0.36,-0.66 0.36,-1.19c0,-0.56 -0.1,-0.98 -0.3,-1.28c-0.21,-0.3 -0.53,-0.46 -0.98,-0.46l-1.77,0l0,0.01z" fill="#ff0000" id="svg_17"/>
  </g>
 </g>
</svg>